<svg width="18" height="18" viewBox="0 0 18 18" fill="none" xmlns="http://www.w3.org/2000/svg">
<path d="M8.99509 0C3.21464 0.036 0 3.28582 0 8.98527C0 14.6847 3.21709 18 9.00491 18C14.8647 18 17.8912 14.9425 18 8.98609C17.9002 3.22855 14.706 0.0368182 8.99509 0ZM12.2727 9.81818H9C8.54836 9.81818 8.18182 9.45164 8.18182 9V4.09091C8.18182 3.63927 8.54755 3.27273 9 3.27273C9.45245 3.27273 9.81818 3.63927 9.81818 4.09091V8.18182H12.2727C12.7252 8.18182 13.0909 8.54836 13.0909 9C13.0909 9.45164 12.7252 9.81818 12.2727 9.81818Z" fill="black"/>
<path d="M8.99509 0C3.21464 0.036 0 3.28582 0 8.98527C0 14.6847 3.21709 18 9.00491 18C14.8647 18 17.8912 14.9425 18 8.98609C17.9002 3.22855 14.706 0.0368182 8.99509 0ZM12.2727 9.81818H9C8.54836 9.81818 8.18182 9.45164 8.18182 9V4.09091C8.18182 3.63927 8.54755 3.27273 9 3.27273C9.45245 3.27273 9.81818 3.63927 9.81818 4.09091V8.18182H12.2727C12.7252 8.18182 13.0909 8.54836 13.0909 9C13.0909 9.45164 12.7252 9.81818 12.2727 9.81818Z" fill="url(#paint0_linear_53_446)"/>
<defs>
<linearGradient id="paint0_linear_53_446" x1="9" y1="-29.9851" x2="9" y2="18" gradientUnits="userSpaceOnUse">
<stop stop-color="#96686D"/>
<stop offset="1" stop-color="#4D3A3C"/>
</linearGradient>
</defs>
</svg>
