<svg width="19" height="19" viewBox="0 0 19 19" fill="none" xmlns="http://www.w3.org/2000/svg">
<path d="M13.4583 14.2441V18.9941H16.625C17.9367 18.9941 19 17.9308 19 16.6191V9.39833C19.0002 8.98704 18.8404 8.59183 18.5543 8.29633L11.8267 1.02326C10.6397 -0.261096 8.63621 -0.339953 7.35185 0.847101C7.29084 0.903508 7.23206 0.962252 7.17569 1.02326L0.459971 8.29395C0.165248 8.59068 -0.000111272 8.99198 5.61773e-08 9.4102V16.6191C5.61773e-08 17.9308 1.06333 18.9941 2.375 18.9941H5.54165V14.2441C5.55646 12.0854 7.29938 10.3225 9.40374 10.2718C11.5785 10.2193 13.4418 12.0122 13.4583 14.2441Z" fill="url(#paint0_linear_53_435)"/>
<defs>
<linearGradient id="paint0_linear_53_435" x1="9.5" y1="-31.6253" x2="9.5" y2="18.9941" gradientUnits="userSpaceOnUse">
<stop stop-color="#AD394C"/>
<stop offset="1" stop-color="#963243"/>
</linearGradient>
</defs>
</svg>
