<svg width="29" height="30" viewBox="0 0 29 30" fill="none" xmlns="http://www.w3.org/2000/svg">
<path d="M21.4358 14.9333C21.4358 13.4566 21.0252 12.013 20.2561 10.7851C19.4869 9.55718 18.3937 8.60016 17.1146 8.03502C15.8355 7.46989 14.428 7.32202 13.0702 7.61013C11.7123 7.89823 10.465 8.60936 9.48605 9.65359C8.50708 10.6978 7.84039 12.0283 7.5703 13.4766C7.3002 14.925 7.43882 16.4263 7.96864 17.7907C8.49845 19.155 9.39566 20.3212 10.5468 21.1416C11.6979 21.9621 13.0513 22.4 14.4358 22.4C16.2917 22.398 18.0711 21.6107 19.3835 20.2109C20.6958 18.811 21.4339 16.913 21.4358 14.9333ZM17.5053 16.3122L15.2968 19.4519C15.1966 19.5946 15.0666 19.7104 14.9172 19.7902C14.7677 19.87 14.6029 19.9115 14.4358 19.9115C14.2687 19.9115 14.1038 19.87 13.9544 19.7902C13.8049 19.7104 13.675 19.5946 13.5748 19.4519L11.3663 16.3122C11.0868 15.9143 10.9358 15.4305 10.9358 14.9333C10.9358 14.4362 11.0868 13.9524 11.3663 13.5545L13.5748 10.4147C13.675 10.2721 13.8049 10.1562 13.9544 10.0764C14.1038 9.99667 14.2687 9.95513 14.4358 9.95513C14.6029 9.95513 14.7677 9.99667 14.9172 10.0764C15.0666 10.1562 15.1966 10.2721 15.2968 10.4147L17.5053 13.5545C17.7847 13.9524 17.9358 14.4362 17.9358 14.9333C17.9358 15.4305 17.7847 15.9143 17.5053 16.3122ZM11.595 0.309855C13.469 -0.103285 15.4025 -0.103285 17.2766 0.309855L16.2406 4.11412C16.1702 4.3837 16.0151 4.61925 15.8011 4.78125C15.5872 4.94326 15.3276 5.02187 15.0658 5.0039C14.8581 4.98772 14.6481 4.97777 14.4358 4.97777C14.2235 4.97777 14.0135 4.98772 13.8058 5.0039C13.544 5.02164 13.2845 4.94293 13.0706 4.78096C12.8568 4.61899 12.7016 4.38357 12.631 4.11412L11.595 0.309855ZM18.4713 4.84461L19.5096 1.03039C21.3134 1.78416 22.9516 2.9275 24.3214 4.38866C25.6912 5.84981 26.7631 7.59723 27.4698 9.52123L23.894 10.6288C23.6471 10.7078 23.3824 10.6959 23.1427 10.595C22.9029 10.4941 22.7019 10.3101 22.5721 10.0725C21.7294 8.47419 20.4912 7.15349 18.9928 6.25457C18.7701 6.11612 18.5975 5.90176 18.5029 5.646C18.4083 5.39024 18.3972 5.10796 18.4713 4.84461ZM23.7446 14.2613C23.7278 13.9821 23.8015 13.7051 23.9534 13.4769C24.1052 13.2488 24.3261 13.0833 24.5788 13.0082L28.1453 11.9031C28.5326 13.9021 28.5326 15.9645 28.1453 17.9635L24.5788 16.8585C24.3261 16.7834 24.1052 16.6179 23.9534 16.3897C23.8015 16.1615 23.7278 15.8846 23.7446 15.6053C23.7598 15.3838 23.7691 15.1598 23.7691 14.9333C23.7691 14.7068 23.7598 14.4828 23.7446 14.2613ZM4.97879 10.5616L1.45896 9.35448C2.17733 7.46728 3.24854 5.75594 4.60727 4.32481C5.96601 2.89368 7.58379 1.77276 9.36196 1.03039L10.4003 4.84461C10.4744 5.10827 10.4631 5.39085 10.3683 5.64684C10.2735 5.90283 10.1006 6.11734 9.87763 6.25581C8.39776 7.14439 7.17161 8.44455 6.32979 10.0178C6.19667 10.2593 5.99004 10.445 5.74425 10.544C5.49847 10.6429 5.22835 10.6491 4.97879 10.5616ZM17.4365 29.512C15.4606 29.9849 13.411 29.9849 11.4351 29.512L12.5785 25.7152C12.6539 25.4529 12.8102 25.2256 13.0219 25.0699C13.2337 24.9143 13.4885 24.8395 13.7451 24.8578C13.9785 24.8777 14.2036 24.8889 14.4358 24.8889C14.668 24.8889 14.9025 24.8777 15.1265 24.8578C15.3831 24.8395 15.6379 24.9143 15.8497 25.0699C16.0614 25.2256 16.2177 25.4529 16.2931 25.7152L17.4365 29.512ZM5.13163 15.67C5.14872 15.9437 5.07863 16.2156 4.93272 16.4415C4.78682 16.6673 4.57365 16.834 4.32779 16.9145L0.768293 18.134C0.324957 16.0264 0.324957 13.8402 0.768293 11.7326L4.32779 12.9522C4.57365 13.0326 4.78682 13.1993 4.93272 13.4252C5.07863 13.6511 5.14872 13.9229 5.13163 14.1966C5.11296 14.4355 5.10246 14.6844 5.10246 14.9333C5.10246 15.1822 5.11296 15.4311 5.13163 15.67ZM23.894 19.2379L27.4698 20.3454C26.7738 22.2421 25.723 23.9678 24.3813 25.4171C23.0396 26.8664 21.4352 28.009 19.666 28.7753L18.5343 25.0208C18.4516 24.7546 18.4571 24.4663 18.5499 24.2039C18.6427 23.9416 18.8172 23.7212 19.0441 23.5797C20.5193 22.6818 21.7386 21.3739 22.5721 19.7954C22.7016 19.5574 22.9025 19.373 23.1423 19.2718C23.3821 19.1707 23.647 19.1587 23.894 19.2379ZM10.3373 25.0208L9.20563 28.7753C7.4619 28.0206 5.87783 26.9005 4.54721 25.4811C3.21658 24.0618 2.16644 22.3721 1.45896 20.5122L4.97879 19.3051C5.22844 19.2169 5.49889 19.223 5.74485 19.3222C5.9908 19.4214 6.19732 19.6078 6.32979 19.8501C7.16259 21.4059 8.37122 22.6951 9.82979 23.5835C10.0553 23.7255 10.2285 23.9454 10.3208 24.2068C10.413 24.4682 10.4189 24.7554 10.3373 25.0208Z" fill="white" fill-opacity="0.9"/>
</svg>
