<svg width="22" height="11" viewBox="0 0 22 11" fill="none" xmlns="http://www.w3.org/2000/svg">
<path d="M21.3194 6.80964C20.8049 6.55131 20.1851 6.75756 19.9246 7.26589C19.7955 6.68047 19.6309 6.09714 19.433 5.51901C18.8111 3.69922 17.3361 2.24922 15.4882 1.64193C12.1392 0.537765 8.73819 0.536723 5.38506 1.64193C3.53715 2.25026 2.06215 3.70026 1.44027 5.51901C1.27465 6.00339 1.13402 6.48776 1.01631 6.97214C0.880896 7.53152 1.22465 8.09401 1.78298 8.22943C2.34131 8.36693 2.90485 8.02214 3.04027 7.46276C3.1434 7.03985 3.26631 6.61693 3.4111 6.19297C3.8236 4.98776 4.80381 4.02631 6.0361 3.6211C8.9559 2.6586 11.9174 2.65964 14.8371 3.6211C16.0694 4.02631 17.0496 4.98776 17.4621 6.19402C17.5934 6.57735 17.7069 6.96172 17.8038 7.34714C17.4236 7.02006 16.8507 7.00443 16.4538 7.34089C16.0142 7.71068 15.9569 8.36797 16.3288 8.8086C17.1569 9.79193 17.5892 10.1253 18.7621 10.6846C18.9049 10.7523 19.058 10.7867 19.2111 10.7867C19.4403 10.7867 19.6674 10.7107 19.8549 10.5638C20.8684 9.76693 21.2111 9.34818 21.784 8.20756C22.0424 7.69297 21.8351 7.06797 21.3215 6.80964H21.3194Z" fill="white" fill-opacity="0.9"/>
</svg>
