<svg width="22" height="11" viewBox="0 0 22 11" fill="none" xmlns="http://www.w3.org/2000/svg">
<path d="M21.0851 2.77106C20.5257 2.63356 19.9632 2.98148 19.8288 3.54085C19.7278 3.96273 19.6049 4.38564 19.4601 4.80856C19.0476 6.01377 18.0674 6.97523 16.8351 7.38043C13.9132 8.34398 10.9538 8.34293 8.03402 7.38043C6.80173 6.97418 5.82048 6.01377 5.40902 4.80856C5.27777 4.42523 5.16423 4.03981 5.0684 3.65439C5.44861 3.98252 6.02152 3.99398 6.41736 3.66064C6.85694 3.29085 6.91423 2.63356 6.5434 2.19293C5.71527 1.2096 5.28298 0.876268 4.11006 0.316893C3.75381 0.147101 3.32986 0.192934 3.01736 0.437726C2.00381 1.23564 1.66111 1.65335 1.08819 2.79398C0.829856 3.30856 1.03715 3.93356 1.55173 4.19189C1.70173 4.26689 1.86111 4.30231 2.0184 4.30231C2.39756 4.30231 2.76319 4.09502 2.94652 3.7346C3.07569 4.31898 3.23923 4.90231 3.43819 5.48148C4.06006 7.30127 5.53506 8.75023 7.38298 9.35856C9.05902 9.91064 10.7476 10.1867 12.4361 10.1867C14.1246 10.1867 15.8121 9.91064 17.4882 9.35856C19.3361 8.75023 20.8111 7.30023 21.433 5.48252C21.5976 5.00023 21.7413 4.5096 21.8569 4.02627C21.9913 3.46689 21.6465 2.90439 21.0871 2.77002L21.0851 2.77106Z" fill="white" fill-opacity="0.9"/>
</svg>
