<svg width="21" height="21" viewBox="0 0 21 21" fill="none" xmlns="http://www.w3.org/2000/svg">
<path d="M5.67398 8.58569C5.52731 8.58569 5.38065 8.53903 5.25731 8.44736C5.02148 8.27069 4.92315 7.96403 5.01148 7.68319L5.66481 5.58903L4.01398 4.24569C3.79148 4.05736 3.71065 3.75069 3.81148 3.47736C3.91148 3.20403 4.17231 3.02236 4.46315 3.02236H6.54731L7.28481 0.953193C7.38565 0.681526 7.64565 0.501526 7.93565 0.501526C8.22565 0.501526 8.48565 0.681526 8.58648 0.953193L9.32398 3.02236H11.4081C11.6998 3.02236 11.9606 3.20486 12.0606 3.47903C12.1606 3.75319 12.079 4.06069 11.8556 4.24819L10.2131 5.58653L10.8923 7.65653C10.9848 7.93653 10.8906 8.24486 10.6573 8.42486C10.4231 8.60486 10.1015 8.61736 9.85398 8.45653L7.94148 7.21069L6.06065 8.46903C5.94398 8.54736 5.80898 8.58653 5.67481 8.58653L5.67398 8.58569ZM19.8831 10.7874L13.4648 17.7949C11.8865 19.5182 9.65648 20.4999 7.31981 20.4999H3.76815C1.92731 20.4999 0.434814 19.0074 0.434814 17.1665V12.9999C0.434814 11.159 1.92731 9.66653 3.76815 9.66653H10.2573C11.4023 9.66653 12.3073 10.7165 12.0606 11.904C11.8998 12.6757 11.224 13.2357 10.444 13.3474L6.97565 13.8332C6.51981 13.8982 6.20315 14.3207 6.26898 14.7757C6.33398 15.2315 6.75648 15.5474 7.21148 15.4824L10.7548 14.9857C12.4731 14.7407 13.769 13.2465 13.769 11.5107C13.769 11.3282 13.7423 11.1532 13.7148 10.979L16.6656 7.86486C17.0448 7.44819 17.5798 7.19569 18.1606 7.16903C18.7373 7.14069 19.2965 7.34319 19.7256 7.73403C20.6023 8.53236 20.674 9.90153 19.8831 10.7874Z" fill="white" fill-opacity="0.9"/>
</svg>
