<svg width="48" height="48" viewBox="0 0 48 48" fill="none" xmlns="http://www.w3.org/2000/svg">
<g clip-path="url(#clip0_35_1083)" filter="url(#filter0_f_35_1083)">
<path d="M44 19C43.7841 20.2102 43.3032 21.3576 42.5917 22.36L27.9533 42.06C27.4892 42.6596 26.8949 43.1458 26.2152 43.4818C25.5355 43.8178 24.7883 43.9948 24.0301 43.9995C23.2719 44.0041 22.5226 43.8363 21.8388 43.5086C21.1551 43.181 20.5548 42.7022 20.0833 42.1083L5.37333 22C4.74847 21.0946 4.30735 20.0753 4.075 19H14.5217L22.4433 39.5983C22.5639 39.9135 22.7772 40.1846 23.0552 40.3759C23.3331 40.5671 23.6626 40.6695 24 40.6695C24.3374 40.6695 24.6669 40.5671 24.9448 40.3759C25.2228 40.1846 25.4361 39.9135 25.5567 39.5983L33.4783 19H44ZM33.5 15.6667H43.9283C43.6748 14.539 43.1883 13.4768 42.5 12.5483L38.2367 6.79167C37.6193 5.92876 36.8051 5.22542 35.8617 4.73993C34.9182 4.25444 33.8727 4.00079 32.8117 4H29.145L33.5 15.6667ZM22.5133 4L18.0817 15.6667H29.935L25.5917 4H22.5133ZM14.5167 15.6667L18.9467 4H15.0767C14.0246 3.99897 12.9874 4.24755 12.0501 4.72531C11.1128 5.20308 10.3022 5.89641 9.685 6.74834L5.56333 12.1517C4.77468 13.1851 4.23924 14.3889 4 15.6667H14.5167ZM29.9067 19H18.0933L24 34.3567L29.9067 19Z" fill="#7C7C7C" fill-opacity="0.11"/>
</g>
<defs>
<filter id="filter0_f_35_1083" x="0" y="0" width="48" height="48" filterUnits="userSpaceOnUse" color-interpolation-filters="sRGB">
<feFlood flood-opacity="0" result="BackgroundImageFix"/>
<feBlend mode="normal" in="SourceGraphic" in2="BackgroundImageFix" result="shape"/>
<feGaussianBlur stdDeviation="2" result="effect1_foregroundBlur_35_1083"/>
</filter>
<clipPath id="clip0_35_1083">
<rect width="40" height="40" fill="white" transform="translate(4 4)"/>
</clipPath>
</defs>
</svg>
