<svg width="22" height="11" viewBox="0 0 22 11" fill="none" xmlns="http://www.w3.org/2000/svg">
<path d="M21.0849 2.89606C20.5255 2.75856 19.963 3.10648 19.8286 3.66585C19.7276 4.08773 19.6047 4.51064 19.4599 4.93356C19.0474 6.13877 18.0672 7.10023 16.8349 7.50543C13.913 8.46898 10.9536 8.46793 8.03384 7.50543C6.80155 7.09918 5.8203 6.13877 5.40884 4.93356C5.27759 4.55023 5.16405 4.16481 5.06821 3.77939C5.44842 4.10752 6.02134 4.11898 6.41717 3.78564C6.85676 3.41585 6.91405 2.75856 6.54321 2.31793C5.71509 1.3346 5.2828 1.00127 4.10988 0.441893C3.75363 0.272101 3.32967 0.317934 3.01717 0.562726C2.00363 1.36064 1.66092 1.77835 1.08801 2.91898C0.829673 3.43356 1.03696 4.05856 1.55155 4.31689C1.70155 4.39189 1.86092 4.42731 2.01821 4.42731C2.39738 4.42731 2.76301 4.22002 2.94634 3.8596C3.07551 4.44398 3.23905 5.02731 3.43801 5.60648C4.05988 7.42627 5.53488 8.87523 7.3828 9.48356C9.05884 10.0356 10.7474 10.3117 12.4359 10.3117C14.1245 10.3117 15.812 10.0356 17.488 9.48356C19.3359 8.87523 20.8109 7.42523 21.4328 5.60752C21.5974 5.12523 21.7411 4.6346 21.8568 4.15127C21.9911 3.59189 21.6463 3.02939 21.087 2.89502L21.0849 2.89606Z" fill="white" fill-opacity="0.9"/>
</svg>
