<svg width="29" height="30" viewBox="0 0 29 30" fill="none" xmlns="http://www.w3.org/2000/svg">
<path d="M21.4359 15.0583C21.4359 13.5816 21.0254 12.138 20.2562 10.9101C19.487 9.68218 18.3938 8.72516 17.1147 8.16002C15.8356 7.59489 14.4282 7.44702 13.0703 7.73513C11.7124 8.02323 10.4651 8.73436 9.48617 9.77859C8.5072 10.8228 7.84052 12.1533 7.57042 13.6016C7.30032 15.05 7.43895 16.5513 7.96876 17.9157C8.49857 19.28 9.39578 20.4462 10.5469 21.2666C11.6981 22.0871 13.0514 22.525 14.4359 22.525C16.2919 22.523 18.0713 21.7357 19.3836 20.3359C20.696 18.936 21.4341 17.038 21.4359 15.0583ZM17.5054 16.4372L15.2969 19.5769C15.1967 19.7196 15.0668 19.8354 14.9173 19.9152C14.7679 19.995 14.603 20.0365 14.4359 20.0365C14.2688 20.0365 14.104 19.995 13.9545 19.9152C13.8051 19.8354 13.6751 19.7196 13.5749 19.5769L11.3664 16.4372C11.087 16.0393 10.9359 15.5555 10.9359 15.0583C10.9359 14.5612 11.087 14.0774 11.3664 13.6795L13.5749 10.5397C13.6751 10.3971 13.8051 10.2812 13.9545 10.2014C14.104 10.1217 14.2688 10.0801 14.4359 10.0801C14.603 10.0801 14.7679 10.1217 14.9173 10.2014C15.0668 10.2812 15.1967 10.3971 15.2969 10.5397L17.5054 13.6795C17.7849 14.0774 17.9359 14.5612 17.9359 15.0583C17.9359 15.5555 17.7849 16.0393 17.5054 16.4372ZM11.5951 0.434855C13.4692 0.0217149 15.4027 0.0217149 17.2767 0.434855L16.2407 4.23912C16.1703 4.5087 16.0152 4.74425 15.8013 4.90625C15.5874 5.06826 15.3277 5.14687 15.0659 5.1289C14.8582 5.11272 14.6482 5.10277 14.4359 5.10277C14.2236 5.10277 14.0136 5.11272 13.8059 5.1289C13.5442 5.14664 13.2846 5.06793 13.0708 4.90596C12.8569 4.74399 12.7017 4.50857 12.6311 4.23912L11.5951 0.434855ZM18.4714 4.96961L19.5097 1.15539C21.3135 1.90916 22.9517 3.0525 24.3215 4.51366C25.6914 5.97481 26.7633 7.72223 27.4699 9.64623L23.8941 10.7538C23.6472 10.8328 23.3826 10.8209 23.1428 10.72C22.903 10.6191 22.702 10.4351 22.5722 10.1975C21.7295 8.59919 20.4914 7.27849 18.9929 6.37957C18.7702 6.24112 18.5977 6.02676 18.5031 5.771C18.4085 5.51524 18.3973 5.23296 18.4714 4.96961ZM23.7447 14.3863C23.7279 14.1071 23.8016 13.8301 23.9535 13.6019C24.1054 13.3738 24.3262 13.2083 24.5789 13.1332L28.1454 12.0281C28.5327 14.0271 28.5327 16.0895 28.1454 18.0885L24.5789 16.9835C24.3262 16.9084 24.1054 16.7429 23.9535 16.5147C23.8016 16.2865 23.7279 16.0096 23.7447 15.7303C23.7599 15.5088 23.7692 15.2848 23.7692 15.0583C23.7692 14.8318 23.7599 14.6078 23.7447 14.3863ZM4.97892 10.6866L1.45908 9.47948C2.17745 7.59228 3.24866 5.88094 4.60739 4.44981C5.96613 3.01868 7.58391 1.89776 9.36208 1.15539L10.4004 4.96961C10.4745 5.23327 10.4632 5.51585 10.3684 5.77184C10.2736 6.02783 10.1008 6.24234 9.87775 6.38081C8.39789 7.26939 7.17173 8.56955 6.32992 10.1428C6.19679 10.3843 5.99016 10.57 5.74438 10.669C5.4986 10.7679 5.22847 10.7741 4.97892 10.6866ZM17.4366 29.637C15.4607 30.1099 13.4111 30.1099 11.4352 29.637L12.5786 25.8402C12.654 25.5779 12.8103 25.3506 13.022 25.1949C13.2338 25.0393 13.4887 24.9645 13.7452 24.9828C13.9786 25.0027 14.2037 25.0139 14.4359 25.0139C14.6681 25.0139 14.9026 25.0027 15.1266 24.9828C15.3832 24.9645 15.638 25.0393 15.8498 25.1949C16.0616 25.3506 16.2178 25.5779 16.2932 25.8402L17.4366 29.637ZM5.13175 15.795C5.14884 16.0687 5.07875 16.3406 4.93285 16.5665C4.78694 16.7923 4.57377 16.959 4.32792 17.0395L0.768416 18.259C0.325079 16.1514 0.325079 13.9652 0.768416 11.8576L4.32792 13.0772C4.57377 13.1576 4.78694 13.3243 4.93285 13.5502C5.07875 13.7761 5.14884 14.0479 5.13175 14.3216C5.11308 14.5605 5.10258 14.8094 5.10258 15.0583C5.10258 15.3072 5.11308 15.5561 5.13175 15.795ZM23.8941 19.3629L27.4699 20.4704C26.7739 22.3671 25.7231 24.0928 24.3814 25.5421C23.0397 26.9914 21.4353 28.134 19.6661 28.9003L18.5344 25.1458C18.4517 24.8796 18.4572 24.5913 18.55 24.3289C18.6428 24.0666 18.8173 23.8462 19.0442 23.7047C20.5195 22.8068 21.7387 21.4989 22.5722 19.9204C22.7017 19.6824 22.9026 19.498 23.1424 19.3968C23.3823 19.2957 23.6471 19.2837 23.8941 19.3629ZM10.3374 25.1458L9.20575 28.9003C7.46202 28.1456 5.87795 27.0255 4.54733 25.6061C3.2167 24.1868 2.16656 22.4971 1.45908 20.6372L4.97892 19.4301C5.22856 19.3419 5.49901 19.348 5.74497 19.4472C5.99093 19.5464 6.19744 19.7328 6.32992 19.9751C7.16272 21.5309 8.37134 22.8201 9.82992 23.7085C10.0554 23.8505 10.2286 24.0704 10.3209 24.3318C10.4132 24.5932 10.419 24.8804 10.3374 25.1458Z" fill="white" fill-opacity="0.9"/>
</svg>
