<svg width="42" height="41" viewBox="0 0 42 41" fill="none" xmlns="http://www.w3.org/2000/svg">
<path d="M3.91667 25.625H19.2917V41H12.4583C10.1929 41 8.02034 40.1001 6.41846 38.4982C4.81659 36.8963 3.91667 34.7237 3.91667 32.4583V25.625ZM41.5 18.7917C41.5 19.6978 41.14 20.5669 40.4993 21.2076C39.8585 21.8484 38.9895 22.2083 38.0833 22.2083H22.7083V15.3015C22.1343 15.346 21.562 15.375 21 15.375C20.438 15.375 19.8657 15.346 19.2917 15.3015V22.2083H3.91667C3.01051 22.2083 2.14147 21.8484 1.50072 21.2076C0.859969 20.5669 0.5 19.6978 0.5 18.7917C0.5 16.9794 1.21994 15.2413 2.50144 13.9598C3.78294 12.6783 5.52102 11.9583 7.33333 11.9583H10.3024C9.33652 11.1069 8.56982 10.0533 8.0567 8.8724C7.54359 7.69146 7.29662 6.41207 7.33333 5.125C7.33333 4.67192 7.51332 4.2374 7.83369 3.91703C8.15407 3.59665 8.58859 3.41667 9.04167 3.41667C9.49475 3.41667 9.92927 3.59665 10.2496 3.91703C10.57 4.2374 10.75 4.67192 10.75 5.125C10.75 9.60425 14.8005 11.1554 17.8806 11.6867C16.7437 9.67097 16.0593 7.43188 15.875 5.125C15.875 3.76577 16.415 2.4622 17.3761 1.50108C18.3372 0.539954 19.6408 0 21 0C22.3592 0 23.6628 0.539954 24.6239 1.50108C25.585 2.4622 26.125 3.76577 26.125 5.125C25.9407 7.43188 25.2563 9.67097 24.1194 11.6867C27.1995 11.1554 31.25 9.60425 31.25 5.125C31.25 4.67192 31.43 4.2374 31.7504 3.91703C32.0707 3.59665 32.5053 3.41667 32.9583 3.41667C33.4114 3.41667 33.8459 3.59665 34.1663 3.91703C34.4867 4.2374 34.6667 4.67192 34.6667 5.125C34.7034 6.41207 34.4564 7.69146 33.9433 8.8724C33.4302 10.0533 32.6635 11.1069 31.6976 11.9583H34.6667C36.479 11.9583 38.2171 12.6783 39.4986 13.9598C40.7801 15.2413 41.5 16.9794 41.5 18.7917ZM19.2917 5.125C19.4979 6.94066 20.0797 8.69355 21 10.2722C21.9203 8.69355 22.5021 6.94066 22.7083 5.125C22.7083 4.67192 22.5283 4.2374 22.208 3.91703C21.8876 3.59665 21.4531 3.41667 21 3.41667C20.5469 3.41667 20.1124 3.59665 19.792 3.91703C19.4717 4.2374 19.2917 4.67192 19.2917 5.125ZM22.7083 41H29.5417C30.6634 41 31.7741 40.7791 32.8104 40.3498C33.8467 39.9205 34.7884 39.2914 35.5815 38.4982C36.3747 37.705 37.0039 36.7634 37.4331 35.7271C37.8624 34.6908 38.0833 33.58 38.0833 32.4583V25.625H22.7083V41Z" fill="#3A5DB4" fill-opacity="0.12"/>
</svg>
