<svg width="21" height="21" viewBox="0 0 21 21" fill="none" xmlns="http://www.w3.org/2000/svg">
<path d="M5.6741 8.71069C5.52744 8.71069 5.38077 8.66403 5.25744 8.57236C5.0216 8.39569 4.92327 8.08903 5.0116 7.80819L5.66494 5.71403L4.0141 4.37069C3.7916 4.18236 3.71077 3.87569 3.8116 3.60236C3.9116 3.32903 4.17244 3.14736 4.46327 3.14736H6.54744L7.28494 1.07819C7.38577 0.806526 7.64577 0.626526 7.93577 0.626526C8.22577 0.626526 8.48577 0.806526 8.5866 1.07819L9.3241 3.14736H11.4083C11.6999 3.14736 11.9608 3.32986 12.0608 3.60403C12.1608 3.87819 12.0791 4.18569 11.8558 4.37319L10.2133 5.71153L10.8924 7.78153C10.9849 8.06153 10.8908 8.36986 10.6574 8.54986C10.4233 8.72986 10.1016 8.74236 9.8541 8.58153L7.9416 7.33569L6.06077 8.59403C5.9441 8.67236 5.8091 8.71153 5.67494 8.71153L5.6741 8.71069ZM19.8833 10.9124L13.4649 17.9199C11.8866 19.6432 9.6566 20.6249 7.31994 20.6249H3.76827C1.92744 20.6249 0.434937 19.1324 0.434937 17.2915V13.1249C0.434937 11.284 1.92744 9.79153 3.76827 9.79153H10.2574C11.4024 9.79153 12.3074 10.8415 12.0608 12.029C11.8999 12.8007 11.2241 13.3607 10.4441 13.4724L6.97577 13.9582C6.51994 14.0232 6.20327 14.4457 6.2691 14.9007C6.3341 15.3565 6.7566 15.6724 7.2116 15.6074L10.7549 15.1107C12.4733 14.8657 13.7691 13.3715 13.7691 11.6357C13.7691 11.4532 13.7424 11.2782 13.7149 11.104L16.6658 7.98986C17.0449 7.57319 17.5799 7.32069 18.1608 7.29403C18.7374 7.26569 19.2966 7.46819 19.7258 7.85903C20.6024 8.65736 20.6741 10.0265 19.8833 10.9124Z" fill="white" fill-opacity="0.9"/>
</svg>
