<svg width="22" height="11" viewBox="0 0 22 11" fill="none" xmlns="http://www.w3.org/2000/svg">
<path d="M21.3193 6.93464C20.8047 6.67631 20.1849 6.88256 19.9245 7.39089C19.7953 6.80547 19.6307 6.22214 19.4328 5.64401C18.8109 3.82422 17.3359 2.37422 15.488 1.76693C12.139 0.662765 8.738 0.661723 5.38488 1.76693C3.53696 2.37526 2.06196 3.82526 1.44009 5.64401C1.27446 6.12839 1.13384 6.61276 1.01613 7.09714C0.880713 7.65652 1.22446 8.21901 1.7828 8.35443C2.34113 8.49193 2.90467 8.14714 3.04009 7.58776C3.14321 7.16485 3.26613 6.74193 3.41092 6.31797C3.82342 5.11276 4.80363 4.15131 6.03592 3.7461C8.95571 2.7836 11.9172 2.78464 14.837 3.7461C16.0693 4.15131 17.0495 5.11276 17.462 6.31902C17.5932 6.70235 17.7068 7.08672 17.8036 7.47214C17.4234 7.14506 16.8505 7.12943 16.4536 7.46589C16.014 7.83568 15.9568 8.49297 16.3286 8.9336C17.1568 9.91693 17.589 10.2503 18.762 10.8096C18.9047 10.8773 19.0578 10.9117 19.2109 10.9117C19.4401 10.9117 19.6672 10.8357 19.8547 10.6888C20.8682 9.89193 21.2109 9.47318 21.7838 8.33256C22.0422 7.81797 21.8349 7.19297 21.3213 6.93464H21.3193Z" fill="white" fill-opacity="0.9"/>
</svg>
