<svg width="13" height="12" viewBox="0 0 13 12" fill="none" xmlns="http://www.w3.org/2000/svg">
<path d="M6.45508 0.041666C2.62821 0.0654994 0.5 2.22296 0.5 5.99025C0.5 9.75754 2.63037 11.9361 6.46158 11.9583C10.341 11.9356 12.3446 9.93412 12.4167 5.99079C12.3506 2.17908 10.2359 0.066041 6.45508 0.041666ZM7.98854 6.54167H7.00054V7.53021C7.00054 7.82921 6.75842 8.07187 6.45888 8.07187C6.15933 8.07187 5.91721 7.82921 5.91721 7.53021V6.54167H4.92921C4.62967 6.54167 4.38754 6.299 4.38754 6C4.38754 5.701 4.62967 5.45833 4.92921 5.45833H5.91721V4.46979C5.91721 4.17079 6.15933 3.92812 6.45888 3.92812C6.75842 3.92812 7.00054 4.17079 7.00054 4.46979V5.45833H7.98854C8.28808 5.45833 8.53021 5.701 8.53021 6C8.53021 6.299 8.28808 6.54167 7.98854 6.54167Z" fill="#363535"/>
</svg>
