<svg width="21" height="21" viewBox="0 0 21 21" fill="none" xmlns="http://www.w3.org/2000/svg">
<path d="M5.67407 8.58563C5.5274 8.58563 5.38073 8.53897 5.2574 8.4473C5.02156 8.27063 4.92323 7.96397 5.01157 7.68313L5.6649 5.58896L4.01407 4.24563C3.79157 4.0573 3.71073 3.75063 3.81157 3.4773C3.91157 3.20396 4.1724 3.0223 4.46323 3.0223H6.5474L7.2849 0.953132C7.38573 0.681465 7.64573 0.501465 7.93573 0.501465C8.22573 0.501465 8.48573 0.681465 8.58657 0.953132L9.32407 3.0223H11.4082C11.6999 3.0223 11.9607 3.2048 12.0607 3.47897C12.1607 3.75313 12.0791 4.06063 11.8557 4.24813L10.2132 5.58647L10.8924 7.65647C10.9849 7.93647 10.8907 8.2448 10.6574 8.4248C10.4232 8.6048 10.1016 8.6173 9.85407 8.45647L7.94157 7.21063L6.06073 8.46897C5.94407 8.5473 5.80907 8.58647 5.6749 8.58647L5.67407 8.58563ZM19.8832 10.7873L13.4649 17.7948C11.8866 19.5181 9.65657 20.4998 7.3199 20.4998H3.76823C1.9274 20.4998 0.434898 19.0073 0.434898 17.1665V12.9998C0.434898 11.159 1.9274 9.66647 3.76823 9.66647H10.2574C11.4024 9.66647 12.3074 10.7165 12.0607 11.904C11.8999 12.6756 11.2241 13.2356 10.4441 13.3473L6.97573 13.8331C6.5199 13.8981 6.20323 14.3206 6.26907 14.7756C6.33407 15.2315 6.75657 15.5473 7.21157 15.4823L10.7549 14.9856C12.4732 14.7406 13.7691 13.2465 13.7691 11.5106C13.7691 11.3281 13.7424 11.1531 13.7149 10.979L16.6657 7.8648C17.0449 7.44813 17.5799 7.19563 18.1607 7.16897C18.7374 7.14063 19.2966 7.34313 19.7257 7.73396C20.6024 8.5323 20.6741 9.90147 19.8832 10.7873Z" fill="white" fill-opacity="0.9"/>
</svg>
