<svg width="13" height="13" viewBox="0 0 13 13" fill="none" xmlns="http://www.w3.org/2000/svg">
<path d="M10.4163 12.5C10.3163 12.5001 10.2186 12.4702 10.1359 12.4142C10.0531 12.3582 9.98893 12.2787 9.95175 12.186L9.52975 11.1295L8.47175 10.684C8.381 10.6439 8.30411 10.5779 8.25074 10.4943C8.19736 10.4106 8.16989 10.3131 8.17176 10.2139C8.17363 10.1147 8.20476 10.0183 8.26125 9.93673C8.31773 9.85517 8.39705 9.79211 8.48925 9.75548L9.53325 9.35998L9.95175 8.31398C9.99024 8.22257 10.0548 8.14455 10.1375 8.08969C10.2201 8.03483 10.3171 8.00557 10.4163 8.00557C10.5154 8.00557 10.6124 8.03483 10.695 8.08969C10.7777 8.14455 10.8423 8.22257 10.8808 8.31398L11.3013 9.36398L12.3513 9.78448C12.4428 9.82279 12.5211 9.88733 12.5761 9.96998C12.6311 10.0526 12.6605 10.1497 12.6605 10.249C12.6605 10.3483 12.6311 10.4453 12.5761 10.528C12.5211 10.6106 12.4428 10.6752 12.3513 10.7135L11.3013 11.134L10.8808 12.184C10.8439 12.2771 10.7799 12.357 10.6971 12.4134C10.6143 12.4697 10.5164 12.4999 10.4163 12.5ZM5.66625 11C5.45024 11.0026 5.2392 10.9351 5.0647 10.8078C4.8902 10.6804 4.76164 10.5 4.69825 10.2935L3.89125 7.76998L1.35975 6.92298C1.15544 6.85469 0.978113 6.72322 0.853398 6.54756C0.728683 6.3719 0.663031 6.16114 0.665924 5.94573C0.668818 5.73032 0.740107 5.52141 0.869496 5.34916C0.998885 5.17692 1.17967 5.05026 1.38575 4.98748L3.89725 4.22048L4.74325 1.69348C4.80615 1.48591 4.93627 1.30515 5.11313 1.17961C5.28999 1.05407 5.50356 0.990878 5.72025 0.999978C5.9363 1.00027 6.14645 1.07053 6.31923 1.20023C6.49202 1.32993 6.61815 1.5121 6.67875 1.71948L7.44475 4.22698L9.95975 5.03198C10.1626 5.10002 10.339 5.23007 10.4639 5.40376C10.5889 5.57746 10.6561 5.78601 10.6561 5.99998C10.6561 6.21394 10.5889 6.4225 10.4639 6.59619C10.339 6.76989 10.1626 6.89994 9.95975 6.96798L7.44025 7.77398L6.63425 10.2935C6.57086 10.5 6.4423 10.6804 6.26781 10.8078C6.09331 10.9351 5.88227 11.0026 5.66625 11ZM10.9163 3.99998C10.8048 3.99998 10.6965 3.96273 10.6087 3.89415C10.5208 3.82557 10.4583 3.7296 10.4313 3.62148L10.2528 2.90648L9.53625 2.71398C9.42856 2.68504 9.33364 2.62094 9.26656 2.53186C9.19949 2.44278 9.16411 2.33383 9.16607 2.22234C9.16802 2.11085 9.20719 2.00321 9.27734 1.91653C9.3475 1.82986 9.44462 1.76912 9.55325 1.74398L10.2533 1.58148L10.4313 0.878478C10.4584 0.770365 10.5208 0.674404 10.6087 0.605838C10.6965 0.537271 10.8048 0.500031 10.9163 0.500031C11.0277 0.500031 11.136 0.537271 11.2238 0.605838C11.3117 0.674404 11.3742 0.770365 11.4013 0.878478L11.5783 1.58748L12.2873 1.76498C12.3954 1.79207 12.4913 1.85452 12.5599 1.94239C12.6285 2.03026 12.6657 2.13852 12.6657 2.24998C12.6657 2.36144 12.6285 2.4697 12.5599 2.55757C12.4913 2.64544 12.3954 2.70788 12.2873 2.73498L11.5783 2.91248L11.4013 3.62148C11.3742 3.7296 11.3117 3.82557 11.2239 3.89415C11.136 3.96273 11.0277 3.99998 10.9163 3.99998Z" fill="#B5B3B3" fill-opacity="0.66"/>
</svg>
