<svg width="15" height="15" viewBox="0 0 15 15" fill="none" xmlns="http://www.w3.org/2000/svg">
<path d="M10.2499 2.52187C9.49985 1.885 8.72485 1.22687 7.9411 0.44375L7.49485 0L7.05735 0.444375C5.6486 1.85813 4.98235 4.02938 4.6936 5.33187C4.47203 4.98879 4.3076 4.61201 4.20672 4.21625L3.93985 3.19313L3.16922 3.91625C1.81985 5.18375 0.919225 6.44062 0.919225 8.45312C0.90625 9.90533 1.37895 11.3202 2.26222 12.473C3.14549 13.6258 4.38866 14.4503 5.79423 14.8156C6.1474 14.9051 6.50704 14.9667 6.86985 15C6.08315 14.8534 5.37241 14.4365 4.86055 13.8213C4.3487 13.2062 4.0679 12.4315 4.06672 11.6313C4.06672 10.225 4.91485 9.50625 5.89672 8.6675C6.24735 8.36938 6.64673 8.03125 7.04985 7.62563L7.49485 7.18313L7.93735 7.62563C8.29735 7.98563 8.65735 8.29063 9.00548 8.58687C9.99048 9.4225 10.9205 10.2119 10.9205 11.6313C10.9195 12.4283 10.6409 13.2002 10.1327 13.8143C9.6245 14.4283 8.91832 14.8462 8.13548 14.9963C9.76082 14.8385 11.2691 14.0811 12.3663 12.8716C13.4635 11.6621 14.0708 10.0874 14.0699 8.45438C14.0699 5.76562 12.2992 4.2625 10.2499 2.52187Z" fill="#1C1C1D"/>
</svg>
