<svg width="13" height="13" viewBox="0 0 13 13" fill="none" xmlns="http://www.w3.org/2000/svg">
<path d="M6.66552 8.96277L8.75752 12.5033H4.57352L6.66552 8.96277ZM12.4615 10.3033L6.66552 0.496765L0.869517 10.3033C0.738316 10.5246 0.668057 10.7767 0.665884 11.034C0.663712 11.2912 0.729703 11.5445 0.857148 11.768C0.984593 11.9915 1.16895 12.1773 1.39147 12.3064C1.61399 12.4356 1.86674 12.5035 2.12402 12.5033H3.41152L6.66552 6.99677L9.91952 12.5033H11.207C11.4643 12.5035 11.717 12.4356 11.9396 12.3064C12.1621 12.1773 12.3464 11.9915 12.4739 11.768C12.6013 11.5445 12.6673 11.2912 12.6651 11.034C12.663 10.7767 12.5927 10.5246 12.4615 10.3033Z" fill="#B5B3B3" fill-opacity="0.66"/>
</svg>
