<svg width="14" height="13" viewBox="0 0 14 13" fill="none" xmlns="http://www.w3.org/2000/svg">
<path d="M6.9163 0.0833435C3.92905 0.0833435 0.499634 0.81251 0.499634 6.50001C0.499634 12.1875 3.92905 12.9167 6.9163 12.9167C9.11138 12.9167 11.0148 12.5416 12.2258 12.2266C12.4306 12.1735 12.5904 12.0137 12.6435 11.8089C13.1014 10.0473 13.3336 8.26109 13.3336 6.50001C13.333 0.81251 9.90355 0.0833435 6.9163 0.0833435ZM9.40947 6.73801C9.32372 6.78293 9.23097 6.80393 9.14055 6.80393C8.92997 6.80393 8.72638 6.68959 8.62255 6.48951C8.26963 5.81109 7.84963 5.38468 7.49905 5.12218V8.83276C7.49905 9.15476 7.2383 9.41609 6.91572 9.41609C6.59313 9.41609 6.33238 9.15476 6.33238 8.83276V5.12159C5.98238 5.38409 5.56238 5.80993 5.20888 6.48893C5.06013 6.77418 4.7078 6.88559 4.42197 6.73743C4.13672 6.58868 4.0253 6.23634 4.17405 5.95051C5.18263 4.01151 6.71155 3.61543 6.77572 3.59909C6.86672 3.57693 6.96355 3.57693 7.05513 3.59909C7.1193 3.61484 8.64822 4.01151 9.6568 5.95051C9.80555 6.23634 9.69413 6.58868 9.40889 6.73743L9.40947 6.73801Z" fill="#B5B3B3" fill-opacity="0.66"/>
</svg>
