<svg width="22" height="11" viewBox="0 0 22 11" fill="none" xmlns="http://www.w3.org/2000/svg">
<path d="M21.3192 6.80958C20.8046 6.55125 20.1848 6.7575 19.9244 7.26583C19.7953 6.68041 19.6307 6.09708 19.4328 5.51895C18.8109 3.69916 17.3359 2.24916 15.488 1.64187C12.139 0.537703 8.73797 0.536662 5.38485 1.64187C3.53693 2.2502 2.06193 3.7002 1.44006 5.51895C1.27443 6.00333 1.13381 6.4877 1.0161 6.97208C0.880683 7.53145 1.22443 8.09395 1.78277 8.22937C2.3411 8.36687 2.90464 8.02208 3.04006 7.4627C3.14318 7.03979 3.2661 6.61687 3.41089 6.19291C3.82339 4.9877 4.8036 4.02625 6.03589 3.62104C8.95568 2.65854 11.9171 2.65958 14.8369 3.62104C16.0692 4.02625 17.0494 4.9877 17.4619 6.19395C17.5932 6.57729 17.7067 6.96166 17.8036 7.34708C17.4234 7.02 16.8505 7.00437 16.4536 7.34083C16.014 7.71062 15.9567 8.36791 16.3286 8.80854C17.1567 9.79187 17.589 10.1252 18.7619 10.6846C18.9046 10.7523 19.0578 10.7867 19.2109 10.7867C19.4401 10.7867 19.6671 10.7106 19.8546 10.5637C20.8682 9.76687 21.2109 9.34812 21.7838 8.2075C22.0421 7.69291 21.8348 7.06791 21.3213 6.80958H21.3192Z" fill="white" fill-opacity="0.9"/>
</svg>
