<svg width="11" height="12" viewBox="0 0 11 12" fill="none" xmlns="http://www.w3.org/2000/svg">
<path d="M9.625 0.958328H8.70833C7.95025 0.958328 7.33333 1.57524 7.33333 2.33333H3.66667C3.66667 1.57524 3.04975 0.958328 2.29167 0.958328H1.375C0.616917 0.958328 0 1.57524 0 2.33333V3.25C0 4.00808 0.616917 4.625 1.375 4.625H2.29167C2.42779 4.625 2.55888 4.60483 2.68308 4.5677L4.75338 8.0877C4.64475 8.28433 4.58287 8.50983 4.58287 8.75V9.66666C4.58287 10.4247 5.19979 11.0417 5.95787 11.0417H6.87454C7.63263 11.0417 8.24954 10.4247 8.24954 9.66666V8.75C8.24954 7.99191 7.63263 7.375 6.87454 7.375H5.95787C5.78004 7.375 5.61046 7.40937 5.45417 7.47079L3.42742 4.02412C3.57821 3.8032 3.66667 3.53691 3.66667 3.25H7.33333C7.33333 4.00808 7.95025 4.625 8.70833 4.625H9.625C10.3831 4.625 11 4.00808 11 3.25V2.33333C11 1.57524 10.3831 0.958328 9.625 0.958328Z" fill="#1A1515"/>
</svg>
