<svg width="14" height="13" viewBox="0 0 14 13" fill="none" xmlns="http://www.w3.org/2000/svg">
<path d="M7.08238 0.0833435C4.09454 0.0833435 0.66571 0.81251 0.66571 6.50001C0.66571 12.1875 4.09454 12.9167 7.08238 12.9167C9.27746 12.9167 11.1809 12.5416 12.3919 12.2266C12.5966 12.1735 12.7565 12.0137 12.8095 11.8089C13.2675 10.0473 13.4996 8.26109 13.4996 6.50001C13.499 0.81251 10.0696 0.0833435 7.08238 0.0833435ZM9.82346 7.04834C8.81488 8.98734 7.28654 9.38343 7.22179 9.39976C7.17571 9.41084 7.12904 9.41668 7.08238 9.41668C7.03571 9.41668 6.98846 9.41084 6.94296 9.39976C6.87821 9.38401 5.34988 8.98734 4.34129 7.04834C4.19254 6.76251 4.30396 6.41018 4.58979 6.26143C4.87621 6.11209 5.22796 6.22409 5.37671 6.50993C5.72963 7.18834 6.14904 7.61476 6.49963 7.87726V4.16668C6.49963 3.84468 6.76096 3.58334 7.08296 3.58334C7.40496 3.58334 7.66629 3.84468 7.66629 4.16668V7.87784C8.01629 7.61534 8.43629 7.18951 8.78979 6.51051C8.93796 6.22468 9.28971 6.11268 9.57671 6.26201C9.86196 6.41076 9.97338 6.76309 9.82463 7.04893L9.82346 7.04834Z" fill="#B5B3B3" fill-opacity="0.66"/>
</svg>
