<svg width="42" height="41" viewBox="0 0 42 41" fill="none" xmlns="http://www.w3.org/2000/svg">
<path d="M4.25004 25.625H19.625V41H12.7917C10.5263 41 8.35371 40.1001 6.75184 38.4982C5.14996 36.8963 4.25004 34.7237 4.25004 32.4583V25.625ZM41.8334 18.7917C41.8334 19.6978 41.4734 20.5669 40.8327 21.2076C40.1919 21.8484 39.3229 22.2083 38.4167 22.2083H23.0417V15.3015C22.4677 15.346 21.8954 15.375 21.3334 15.375C20.7713 15.375 20.199 15.346 19.625 15.3015V22.2083H4.25004C3.34388 22.2083 2.47484 21.8484 1.83409 21.2076C1.19334 20.5669 0.833374 19.6978 0.833374 18.7917C0.833374 16.9794 1.55331 15.2413 2.83481 13.9598C4.11631 12.6783 5.85439 11.9583 7.66671 11.9583H10.6358C9.6699 11.1069 8.9032 10.0533 8.39008 8.8724C7.87696 7.69146 7.63 6.41207 7.66671 5.125C7.66671 4.67192 7.84669 4.2374 8.16707 3.91703C8.48744 3.59665 8.92196 3.41667 9.37504 3.41667C9.82812 3.41667 10.2626 3.59665 10.583 3.91703C10.9034 4.2374 11.0834 4.67192 11.0834 5.125C11.0834 9.60425 15.1338 11.1554 18.214 11.6867C17.0771 9.67097 16.3927 7.43188 16.2084 5.125C16.2084 3.76577 16.7483 2.4622 17.7095 1.50108C18.6706 0.539954 19.9741 0 21.3334 0C22.6926 0 23.9962 0.539954 24.9573 1.50108C25.9184 2.4622 26.4584 3.76577 26.4584 5.125C26.274 7.43188 25.5897 9.67097 24.4528 11.6867C27.5329 11.1554 31.5834 9.60425 31.5834 5.125C31.5834 4.67192 31.7634 4.2374 32.0837 3.91703C32.4041 3.59665 32.8386 3.41667 33.2917 3.41667C33.7448 3.41667 34.1793 3.59665 34.4997 3.91703C34.8201 4.2374 35 4.67192 35 5.125C35.0368 6.41207 34.7898 7.69146 34.2767 8.8724C33.7636 10.0533 32.9969 11.1069 32.031 11.9583H35C36.8124 11.9583 38.5504 12.6783 39.8319 13.9598C41.1134 15.2413 41.8334 16.9794 41.8334 18.7917ZM19.625 5.125C19.8313 6.94066 20.413 8.69355 21.3334 10.2722C22.2537 8.69355 22.8355 6.94066 23.0417 5.125C23.0417 4.67192 22.8617 4.2374 22.5413 3.91703C22.221 3.59665 21.7865 3.41667 21.3334 3.41667C20.8803 3.41667 20.4458 3.59665 20.1254 3.91703C19.805 4.2374 19.625 4.67192 19.625 5.125ZM23.0417 41H29.875C30.9967 41 32.1075 40.7791 33.1438 40.3498C34.1801 39.9205 35.1217 39.2914 35.9149 38.4982C36.7081 37.705 37.3373 36.7634 37.7665 35.7271C38.1958 34.6908 38.4167 33.58 38.4167 32.4583V25.625H23.0417V41Z" fill="#3A5DB4" fill-opacity="0.12"/>
</svg>
