<svg width="29" height="31" viewBox="0 0 29 31" fill="none" xmlns="http://www.w3.org/2000/svg">
<path d="M21.4359 15.3886C21.4359 13.9118 21.0254 12.4682 20.2562 11.2404C19.487 10.0125 18.3938 9.05545 17.1147 8.49031C15.8356 7.92518 14.4282 7.77731 13.0703 8.06542C11.7124 8.35352 10.4651 9.06465 9.48617 10.1089C8.5072 11.1531 7.84052 12.4835 7.57042 13.9319C7.30032 15.3803 7.43895 16.8816 7.96876 18.246C8.49857 19.6103 9.39578 20.7765 10.5469 21.5969C11.6981 22.4174 13.0514 22.8553 14.4359 22.8553C16.2919 22.8533 18.0713 22.066 19.3836 20.6662C20.696 19.2663 21.4341 17.3683 21.4359 15.3886ZM17.5054 16.7675L15.2969 19.9072C15.1967 20.0499 15.0668 20.1657 14.9173 20.2455C14.7679 20.3253 14.603 20.3668 14.4359 20.3668C14.2688 20.3668 14.104 20.3253 13.9545 20.2455C13.8051 20.1657 13.6751 20.0499 13.5749 19.9072L11.3664 16.7675C11.087 16.3696 10.9359 15.8858 10.9359 15.3886C10.9359 14.8914 11.087 14.4077 11.3664 14.0098L13.5749 10.87C13.6751 10.7273 13.8051 10.6115 13.9545 10.5317C14.104 10.452 14.2688 10.4104 14.4359 10.4104C14.603 10.4104 14.7679 10.452 14.9173 10.5317C15.0668 10.6115 15.1967 10.7273 15.2969 10.87L17.5054 14.0098C17.7849 14.4077 17.9359 14.8914 17.9359 15.3886C17.9359 15.8858 17.7849 16.3696 17.5054 16.7675ZM11.5951 0.765147C13.4692 0.352007 15.4027 0.352007 17.2767 0.765147L16.2407 4.56941C16.1703 4.83899 16.0152 5.07454 15.8013 5.23655C15.5874 5.39855 15.3277 5.47716 15.0659 5.45919C14.8582 5.44301 14.6482 5.43306 14.4359 5.43306C14.2236 5.43306 14.0136 5.44301 13.8059 5.45919C13.5442 5.47693 13.2846 5.39823 13.0708 5.23625C12.8569 5.07428 12.7017 4.83887 12.6311 4.56941L11.5951 0.765147ZM18.4714 5.2999L19.5097 1.48568C21.3135 2.23945 22.9517 3.38279 24.3215 4.84395C25.6914 6.30511 26.7633 8.05252 27.4699 9.97653L23.8941 11.0841C23.6472 11.1631 23.3826 11.1512 23.1428 11.0503C22.903 10.9494 22.702 10.7654 22.5722 10.5278C21.7295 8.92948 20.4914 7.60878 18.9929 6.70986C18.7702 6.57141 18.5977 6.35705 18.5031 6.10129C18.4085 5.84553 18.3973 5.56325 18.4714 5.2999ZM23.7447 14.7166C23.7279 14.4374 23.8016 14.1604 23.9535 13.9322C24.1054 13.7041 24.3262 13.5386 24.5789 13.4635L28.1454 12.3584C28.5327 14.3574 28.5327 16.4198 28.1454 18.4188L24.5789 17.3138C24.3262 17.2387 24.1054 17.0732 23.9535 16.845C23.8016 16.6168 23.7279 16.3399 23.7447 16.0606C23.7599 15.8391 23.7692 15.6151 23.7692 15.3886C23.7692 15.1621 23.7599 14.9381 23.7447 14.7166ZM4.97892 11.0169L1.45908 9.80977C2.17745 7.92258 3.24866 6.21123 4.60739 4.7801C5.96613 3.34897 7.58391 2.22805 9.36208 1.48568L10.4004 5.2999C10.4745 5.56356 10.4632 5.84614 10.3684 6.10213C10.2736 6.35812 10.1008 6.57263 9.87775 6.7111C8.39789 7.59968 7.17173 8.89984 6.32992 10.4731C6.19679 10.7146 5.99016 10.9003 5.74438 10.9993C5.4986 11.0982 5.22847 11.1044 4.97892 11.0169ZM17.4366 29.9673C15.4607 30.4402 13.4111 30.4402 11.4352 29.9673L12.5786 26.1705C12.654 25.9082 12.8103 25.6809 13.022 25.5252C13.2338 25.3696 13.4887 25.2948 13.7452 25.3131C13.9786 25.333 14.2037 25.3442 14.4359 25.3442C14.6681 25.3442 14.9026 25.333 15.1266 25.3131C15.3832 25.2948 15.638 25.3696 15.8498 25.5252C16.0616 25.6809 16.2178 25.9082 16.2932 26.1705L17.4366 29.9673ZM5.13175 16.1253C5.14884 16.399 5.07875 16.6709 4.93285 16.8967C4.78694 17.1226 4.57377 17.2893 4.32792 17.3698L0.768416 18.5893C0.325079 16.4817 0.325079 14.2955 0.768416 12.1879L4.32792 13.4075C4.57377 13.4879 4.78694 13.6546 4.93285 13.8805C5.07875 14.1064 5.14884 14.3782 5.13175 14.6519C5.11308 14.8908 5.10258 15.1397 5.10258 15.3886C5.10258 15.6375 5.11308 15.8864 5.13175 16.1253ZM23.8941 19.6931L27.4699 20.8007C26.7739 22.6974 25.7231 24.4231 24.3814 25.8724C23.0397 27.3217 21.4353 28.4643 19.6661 29.2306L18.5344 25.4761C18.4517 25.2099 18.4572 24.9215 18.55 24.6592C18.6428 24.3969 18.8173 24.1765 19.0442 24.035C20.5195 23.1371 21.7387 21.8292 22.5722 20.2507C22.7017 20.0127 22.9026 19.8283 23.1424 19.7271C23.3823 19.626 23.6471 19.614 23.8941 19.6931ZM10.3374 25.4761L9.20575 29.2306C7.46202 28.4759 5.87795 27.3558 4.54733 25.9364C3.2167 24.5171 2.16656 22.8274 1.45908 20.9675L4.97892 19.7603C5.22856 19.6722 5.49901 19.6783 5.74497 19.7775C5.99093 19.8767 6.19744 20.0631 6.32992 20.3054C7.16272 21.8612 8.37134 23.1504 9.82992 24.0387C10.0554 24.1808 10.2286 24.4007 10.3209 24.6621C10.4132 24.9235 10.419 25.2107 10.3374 25.4761Z" fill="white" fill-opacity="0.9"/>
</svg>
