<svg width="21" height="21" viewBox="0 0 21 21" fill="none" xmlns="http://www.w3.org/2000/svg">
<path d="M5.6741 9.04095C5.52744 9.04095 5.38077 8.99429 5.25744 8.90262C5.0216 8.72595 4.92327 8.41929 5.0116 8.13845L5.66494 6.04429L4.0141 4.70095C3.7916 4.51262 3.71077 4.20595 3.8116 3.93262C3.9116 3.65929 4.17244 3.47762 4.46327 3.47762H6.54744L7.28494 1.40845C7.38577 1.13679 7.64577 0.956787 7.93577 0.956787C8.22577 0.956787 8.48577 1.13679 8.5866 1.40845L9.3241 3.47762H11.4083C11.6999 3.47762 11.9608 3.66012 12.0608 3.93429C12.1608 4.20845 12.0791 4.51595 11.8558 4.70345L10.2133 6.04179L10.8924 8.11179C10.9849 8.39179 10.8908 8.70012 10.6574 8.88012C10.4233 9.06012 10.1016 9.07262 9.8541 8.91179L7.9416 7.66595L6.06077 8.92429C5.9441 9.00262 5.8091 9.04179 5.67494 9.04179L5.6741 9.04095ZM19.8833 11.2426L13.4649 18.2501C11.8866 19.9735 9.6566 20.9551 7.31994 20.9551H3.76827C1.92744 20.9551 0.434937 19.4626 0.434937 17.6218V13.4551C0.434937 11.6143 1.92744 10.1218 3.76827 10.1218H10.2574C11.4024 10.1218 12.3074 11.1718 12.0608 12.3593C11.8999 13.131 11.2241 13.691 10.4441 13.8026L6.97577 14.2885C6.51994 14.3535 6.20327 14.776 6.2691 15.231C6.3341 15.6868 6.7566 16.0026 7.2116 15.9376L10.7549 15.441C12.4733 15.196 13.7691 13.7018 13.7691 11.966C13.7691 11.7835 13.7424 11.6085 13.7149 11.4343L16.6658 8.32012C17.0449 7.90345 17.5799 7.65095 18.1608 7.62429C18.7374 7.59595 19.2966 7.79845 19.7258 8.18929C20.6024 8.98762 20.6741 10.3568 19.8833 11.2426Z" fill="white" fill-opacity="0.9"/>
</svg>
