<svg width="28" height="29" viewBox="0 0 28 29" fill="none" xmlns="http://www.w3.org/2000/svg">
<path d="M28 14.4553C28 19.6014 23.8128 23.7886 18.6667 23.7886H3.5L6.17517 26.4638C6.63133 26.9199 6.63133 27.6573 6.17517 28.1135C5.94767 28.341 5.649 28.4553 5.35033 28.4553C5.05167 28.4553 4.753 28.341 4.5255 28.1135L0.683667 24.2716C-0.226333 23.3628 -0.226333 21.8811 0.683667 20.9723L4.5255 17.1304C4.98167 16.6743 5.719 16.6743 6.17517 17.1304C6.63133 17.5866 6.63133 18.3239 6.17517 18.7801L3.5 21.4553H18.6667C22.5272 21.4553 25.6667 18.3158 25.6667 14.4553C25.6667 13.8101 26.1893 13.2886 26.8333 13.2886C27.4773 13.2886 28 13.8101 28 14.4553ZM1.16667 15.6219C1.81067 15.6219 2.33333 15.1004 2.33333 14.4553C2.33333 10.5948 5.47283 7.45528 9.33333 7.45528H24.5L21.8248 10.1304C21.3687 10.5866 21.3687 11.3239 21.8248 11.7801C22.0523 12.0076 22.351 12.1219 22.6497 12.1219C22.9483 12.1219 23.247 12.0076 23.4745 11.7801L27.3163 7.93828C28.2263 7.02945 28.2263 5.54778 27.3163 4.63895L23.4745 0.797112C23.0183 0.340945 22.281 0.340945 21.8248 0.797112C21.3687 1.25328 21.3687 1.99061 21.8248 2.44678L24.5 5.12195H9.33333C4.18717 5.12195 0 9.30911 0 14.4553C0 15.1004 0.522667 15.6219 1.16667 15.6219Z" fill="#878788"/>
</svg>
