<svg width="22" height="11" viewBox="0 0 22 11" fill="none" xmlns="http://www.w3.org/2000/svg">
<path d="M21.3194 6.26487C20.8049 6.00654 20.1851 6.21279 19.9246 6.72112C19.7955 6.1357 19.6309 5.55237 19.433 4.97425C18.8111 3.15445 17.3361 1.70445 15.4882 1.09716C12.1392 -0.00700477 8.73819 -0.00804648 5.38506 1.09716C3.53715 1.7055 2.06215 3.1555 1.44027 4.97425C1.27465 5.45862 1.13402 5.943 1.01631 6.42737C0.880896 6.98675 1.22465 7.54925 1.78298 7.68466C2.34131 7.82216 2.90485 7.47737 3.04027 6.918C3.1434 6.49508 3.26631 6.07216 3.4111 5.6482C3.8236 4.443 4.80381 3.48154 6.0361 3.07633C8.9559 2.11383 11.9174 2.11487 14.8371 3.07633C16.0694 3.48154 17.0496 4.443 17.4621 5.64925C17.5934 6.03258 17.7069 6.41695 17.8038 6.80237C17.4236 6.47529 16.8507 6.45966 16.4538 6.79612C16.0142 7.16591 15.9569 7.8232 16.3288 8.26383C17.1569 9.24716 17.5892 9.5805 18.7621 10.1399C18.9049 10.2076 19.058 10.242 19.2111 10.242C19.4403 10.242 19.6674 10.1659 19.8549 10.019C20.8684 9.22216 21.2111 8.80341 21.784 7.66279C22.0424 7.1482 21.8351 6.5232 21.3215 6.26487H21.3194Z" fill="white" fill-opacity="0.9"/>
</svg>
