<svg width="22" height="11" viewBox="0 0 22 11" fill="none" xmlns="http://www.w3.org/2000/svg">
<path d="M21.0851 3.22635C20.5257 3.08885 19.9632 3.43677 19.8288 3.99614C19.7278 4.41802 19.6049 4.84093 19.4601 5.26385C19.0476 6.46906 18.0674 7.43052 16.8351 7.83573C13.9132 8.79927 10.9538 8.79823 8.03402 7.83573C6.80173 7.42948 5.82048 6.46906 5.40902 5.26385C5.27777 4.88052 5.16423 4.4951 5.0684 4.10968C5.44861 4.43781 6.02152 4.44927 6.41736 4.11594C6.85694 3.74614 6.91423 3.08885 6.5434 2.64823C5.71527 1.66489 5.28298 1.33156 4.11006 0.772185C3.75381 0.602393 3.32986 0.648226 3.01736 0.893017C2.00381 1.69093 1.66111 2.10864 1.08819 3.24927C0.829856 3.76385 1.03715 4.38885 1.55173 4.64718C1.70173 4.72218 1.86111 4.7576 2.0184 4.7576C2.39756 4.7576 2.76319 4.55031 2.94652 4.18989C3.07569 4.77427 3.23923 5.3576 3.43819 5.93677C4.06006 7.75656 5.53506 9.20552 7.38298 9.81385C9.05902 10.3659 10.7476 10.642 12.4361 10.642C14.1246 10.642 15.8121 10.3659 17.4882 9.81385C19.3361 9.20552 20.8111 7.75552 21.433 5.93781C21.5976 5.45552 21.7413 4.96489 21.8569 4.48156C21.9913 3.92218 21.6465 3.35968 21.0871 3.22531L21.0851 3.22635Z" fill="white" fill-opacity="0.9"/>
</svg>
