<svg width="22" height="11" viewBox="0 0 22 11" fill="none" xmlns="http://www.w3.org/2000/svg">
<path d="M21.3192 6.80964C20.8046 6.55131 20.1848 6.75756 19.9244 7.26589C19.7952 6.68047 19.6307 6.09714 19.4327 5.51901C18.8109 3.69922 17.3359 2.24922 15.4879 1.64193C12.139 0.537765 8.73794 0.536723 5.38482 1.64193C3.5369 2.25026 2.0619 3.70026 1.44003 5.51901C1.2744 6.00339 1.13378 6.48776 1.01607 6.97214C0.880652 7.53152 1.2244 8.09401 1.78274 8.22943C2.34107 8.36693 2.90461 8.02214 3.04003 7.46276C3.14315 7.03985 3.26607 6.61693 3.41086 6.19297C3.82336 4.98776 4.80357 4.02631 6.03586 3.6211C8.95565 2.6586 11.9171 2.65964 14.8369 3.6211C16.0692 4.02631 17.0494 4.98776 17.4619 6.19402C17.5932 6.57735 17.7067 6.96172 17.8036 7.34714C17.4234 7.02006 16.8504 7.00443 16.4536 7.34089C16.014 7.71068 15.9567 8.36797 16.3286 8.8086C17.1567 9.79193 17.589 10.1253 18.7619 10.6846C18.9046 10.7523 19.0577 10.7867 19.2109 10.7867C19.44 10.7867 19.6671 10.7107 19.8546 10.5638C20.8682 9.76693 21.2109 9.34818 21.7838 8.20756C22.0421 7.69297 21.8348 7.06797 21.3213 6.80964H21.3192Z" fill="white" fill-opacity="0.9"/>
</svg>
