<svg width="21" height="21" viewBox="0 0 21 21" fill="none" xmlns="http://www.w3.org/2000/svg">
<path d="M5.6741 8.58569C5.52744 8.58569 5.38077 8.53903 5.25744 8.44736C5.0216 8.27069 4.92327 7.96403 5.0116 7.68319L5.66494 5.58903L4.0141 4.24569C3.7916 4.05736 3.71077 3.75069 3.8116 3.47736C3.9116 3.20403 4.17244 3.02236 4.46327 3.02236H6.54744L7.28494 0.953193C7.38577 0.681526 7.64577 0.501526 7.93577 0.501526C8.22577 0.501526 8.48577 0.681526 8.5866 0.953193L9.3241 3.02236H11.4083C11.6999 3.02236 11.9608 3.20486 12.0608 3.47903C12.1608 3.75319 12.0791 4.06069 11.8558 4.24819L10.2133 5.58653L10.8924 7.65653C10.9849 7.93653 10.8908 8.24486 10.6574 8.42486C10.4233 8.60486 10.1016 8.61736 9.8541 8.45653L7.9416 7.21069L6.06077 8.46903C5.9441 8.54736 5.8091 8.58653 5.67494 8.58653L5.6741 8.58569ZM19.8833 10.7874L13.4649 17.7949C11.8866 19.5182 9.6566 20.4999 7.31994 20.4999H3.76827C1.92744 20.4999 0.434937 19.0074 0.434937 17.1665V12.9999C0.434937 11.159 1.92744 9.66653 3.76827 9.66653H10.2574C11.4024 9.66653 12.3074 10.7165 12.0608 11.904C11.8999 12.6757 11.2241 13.2357 10.4441 13.3474L6.97577 13.8332C6.51994 13.8982 6.20327 14.3207 6.2691 14.7757C6.3341 15.2315 6.7566 15.5474 7.2116 15.4824L10.7549 14.9857C12.4733 14.7407 13.7691 13.2465 13.7691 11.5107C13.7691 11.3282 13.7424 11.1532 13.7149 10.979L16.6658 7.86486C17.0449 7.44819 17.5799 7.19569 18.1608 7.16903C18.7374 7.14069 19.2966 7.34319 19.7258 7.73403C20.6024 8.53236 20.6741 9.90153 19.8833 10.7874Z" fill="white" fill-opacity="0.9"/>
</svg>
