<svg width="9" height="9" viewBox="0 0 9 9" fill="none" xmlns="http://www.w3.org/2000/svg">
<path d="M7.45519 3.20148H6.19319V1.93948C6.19319 1.11048 5.52119 0.439484 4.69319 0.439484C3.86519 0.439484 3.19319 1.11048 3.19319 1.93948V3.20148H1.93219C1.10419 3.20148 0.43219 3.87248 0.43219 4.70148C0.43219 5.53048 1.10419 6.20148 1.93219 6.20148H3.19319V7.46348C3.19319 8.29148 3.86519 8.96348 4.69319 8.96348C5.52119 8.96348 6.19319 8.29148 6.19319 7.46348V6.20148H7.45519C8.28319 6.20148 8.95519 5.52948 8.95519 4.70148C8.95519 3.87348 8.28319 3.20148 7.45519 3.20148Z" fill="white"/>
</svg>
