<svg width="29" height="30" viewBox="0 0 29 30" fill="none" xmlns="http://www.w3.org/2000/svg">
<path d="M21.4359 14.9333C21.4359 13.4566 21.0254 12.013 20.2562 10.7851C19.487 9.55718 18.3938 8.60016 17.1147 8.03502C15.8356 7.46989 14.4282 7.32202 13.0703 7.61013C11.7124 7.89823 10.4651 8.60936 9.48617 9.65359C8.5072 10.6978 7.84052 12.0283 7.57042 13.4766C7.30032 14.925 7.43895 16.4263 7.96876 17.7907C8.49857 19.155 9.39578 20.3212 10.5469 21.1416C11.6981 21.9621 13.0514 22.4 14.4359 22.4C16.2919 22.398 18.0713 21.6107 19.3836 20.2109C20.696 18.811 21.4341 16.913 21.4359 14.9333ZM17.5054 16.3122L15.2969 19.4519C15.1967 19.5946 15.0668 19.7104 14.9173 19.7902C14.7679 19.87 14.603 19.9115 14.4359 19.9115C14.2688 19.9115 14.104 19.87 13.9545 19.7902C13.8051 19.7104 13.6751 19.5946 13.5749 19.4519L11.3664 16.3122C11.087 15.9143 10.9359 15.4305 10.9359 14.9333C10.9359 14.4362 11.087 13.9524 11.3664 13.5545L13.5749 10.4147C13.6751 10.2721 13.8051 10.1562 13.9545 10.0764C14.104 9.99667 14.2688 9.95513 14.4359 9.95513C14.603 9.95513 14.7679 9.99667 14.9173 10.0764C15.0668 10.1562 15.1967 10.2721 15.2969 10.4147L17.5054 13.5545C17.7849 13.9524 17.9359 14.4362 17.9359 14.9333C17.9359 15.4305 17.7849 15.9143 17.5054 16.3122ZM11.5951 0.309855C13.4692 -0.103285 15.4027 -0.103285 17.2767 0.309855L16.2407 4.11412C16.1703 4.3837 16.0152 4.61925 15.8013 4.78125C15.5874 4.94326 15.3277 5.02187 15.0659 5.0039C14.8582 4.98772 14.6482 4.97777 14.4359 4.97777C14.2236 4.97777 14.0136 4.98772 13.8059 5.0039C13.5442 5.02164 13.2846 4.94293 13.0708 4.78096C12.8569 4.61899 12.7017 4.38357 12.6311 4.11412L11.5951 0.309855ZM18.4714 4.84461L19.5097 1.03039C21.3135 1.78416 22.9517 2.9275 24.3215 4.38866C25.6914 5.84981 26.7633 7.59723 27.4699 9.52123L23.8941 10.6288C23.6472 10.7078 23.3826 10.6959 23.1428 10.595C22.903 10.4941 22.702 10.3101 22.5722 10.0725C21.7295 8.47419 20.4914 7.15349 18.9929 6.25457C18.7702 6.11612 18.5977 5.90176 18.5031 5.646C18.4085 5.39024 18.3973 5.10796 18.4714 4.84461ZM23.7447 14.2613C23.7279 13.9821 23.8016 13.7051 23.9535 13.4769C24.1054 13.2488 24.3262 13.0833 24.5789 13.0082L28.1454 11.9031C28.5327 13.9021 28.5327 15.9645 28.1454 17.9635L24.5789 16.8585C24.3262 16.7834 24.1054 16.6179 23.9535 16.3897C23.8016 16.1615 23.7279 15.8846 23.7447 15.6053C23.7599 15.3838 23.7692 15.1598 23.7692 14.9333C23.7692 14.7068 23.7599 14.4828 23.7447 14.2613ZM4.97892 10.5616L1.45908 9.35448C2.17745 7.46728 3.24866 5.75594 4.60739 4.32481C5.96613 2.89368 7.58391 1.77276 9.36208 1.03039L10.4004 4.84461C10.4745 5.10827 10.4632 5.39085 10.3684 5.64684C10.2736 5.90283 10.1008 6.11734 9.87775 6.25581C8.39789 7.14439 7.17173 8.44455 6.32992 10.0178C6.19679 10.2593 5.99016 10.445 5.74438 10.544C5.4986 10.6429 5.22847 10.6491 4.97892 10.5616ZM17.4366 29.512C15.4607 29.9849 13.4111 29.9849 11.4352 29.512L12.5786 25.7152C12.654 25.4529 12.8103 25.2256 13.022 25.0699C13.2338 24.9143 13.4887 24.8395 13.7452 24.8578C13.9786 24.8777 14.2037 24.8889 14.4359 24.8889C14.6681 24.8889 14.9026 24.8777 15.1266 24.8578C15.3832 24.8395 15.638 24.9143 15.8498 25.0699C16.0616 25.2256 16.2178 25.4529 16.2932 25.7152L17.4366 29.512ZM5.13175 15.67C5.14884 15.9437 5.07875 16.2156 4.93285 16.4415C4.78694 16.6673 4.57377 16.834 4.32792 16.9145L0.768416 18.134C0.325079 16.0264 0.325079 13.8402 0.768416 11.7326L4.32792 12.9522C4.57377 13.0326 4.78694 13.1993 4.93285 13.4252C5.07875 13.6511 5.14884 13.9229 5.13175 14.1966C5.11308 14.4355 5.10258 14.6844 5.10258 14.9333C5.10258 15.1822 5.11308 15.4311 5.13175 15.67ZM23.8941 19.2379L27.4699 20.3454C26.7739 22.2421 25.7231 23.9678 24.3814 25.4171C23.0397 26.8664 21.4353 28.009 19.6661 28.7753L18.5344 25.0208C18.4517 24.7546 18.4572 24.4663 18.55 24.2039C18.6428 23.9416 18.8173 23.7212 19.0442 23.5797C20.5195 22.6818 21.7387 21.3739 22.5722 19.7954C22.7017 19.5574 22.9026 19.373 23.1424 19.2718C23.3823 19.1707 23.6471 19.1587 23.8941 19.2379ZM10.3374 25.0208L9.20575 28.7753C7.46202 28.0206 5.87795 26.9005 4.54733 25.4811C3.2167 24.0618 2.16656 22.3721 1.45908 20.5122L4.97892 19.3051C5.22856 19.2169 5.49901 19.223 5.74497 19.3222C5.99093 19.4214 6.19744 19.6078 6.32992 19.8501C7.16272 21.4059 8.37134 22.6951 9.82992 23.5835C10.0554 23.7255 10.2286 23.9454 10.3209 24.2068C10.4132 24.4682 10.419 24.7554 10.3374 25.0208Z" fill="white" fill-opacity="0.9"/>
</svg>
