<svg width="15" height="13" viewBox="0 0 15 13" fill="none" xmlns="http://www.w3.org/2000/svg">
<path d="M0.666466 3.58334C0.666466 3.42863 0.727924 3.28026 0.83732 3.17086C0.946716 3.06147 1.09509 3.00001 1.2498 3.00001H11.1665V1.03943C11.1676 0.948692 11.1954 0.860305 11.2465 0.785292C11.2976 0.710279 11.3696 0.651962 11.4536 0.617619C11.5376 0.583276 11.6298 0.574427 11.7188 0.592177C11.8078 0.609926 11.8896 0.653488 11.954 0.717426L14.5311 3.26134C14.5736 3.30329 14.6073 3.35324 14.6303 3.40832C14.6534 3.46339 14.6652 3.52249 14.6652 3.58218C14.6652 3.64187 14.6534 3.70096 14.6303 3.75604C14.6073 3.81111 14.5736 3.86107 14.5311 3.90301L11.954 6.44926C11.8896 6.5132 11.8078 6.55676 11.7188 6.57451C11.6298 6.59226 11.5376 6.58341 11.4536 6.54907C11.3696 6.51472 11.2976 6.45641 11.2465 6.38139C11.1954 6.30638 11.1676 6.21799 11.1665 6.12726V4.16668H1.2498C1.09509 4.16668 0.946716 4.10522 0.83732 3.99582C0.727924 3.88643 0.666466 3.73805 0.666466 3.58334ZM14.0831 8.83334H4.16647V6.87276C4.16532 6.78203 4.13748 6.69364 4.08642 6.61862C4.03537 6.54361 3.96335 6.4853 3.87936 6.45095C3.79537 6.41661 3.70312 6.40776 3.61413 6.42551C3.52514 6.44326 3.44335 6.48682 3.37897 6.55076L0.801799 9.09468C0.759329 9.13662 0.725609 9.18657 0.702595 9.24165C0.67958 9.29672 0.667729 9.35582 0.667729 9.41551C0.667729 9.4752 0.67958 9.5343 0.702595 9.58937C0.725609 9.64444 0.759329 9.6944 0.801799 9.73634L3.37897 12.2826C3.44335 12.3465 3.52514 12.3901 3.61413 12.4078C3.70312 12.4256 3.79537 12.4167 3.87936 12.3824C3.96335 12.3481 4.03537 12.2897 4.08642 12.2147C4.13748 12.1397 4.16532 12.0513 4.16647 11.9606V10H14.0831C14.2378 10 14.3862 9.93855 14.4956 9.82915C14.605 9.71976 14.6665 9.57139 14.6665 9.41668C14.6665 9.26197 14.605 9.11359 14.4956 9.0042C14.3862 8.8948 14.2378 8.83334 14.0831 8.83334Z" fill="#B5B3B3" fill-opacity="0.66"/>
</svg>
