<svg width="9" height="9" viewBox="0 0 9 9" fill="none" xmlns="http://www.w3.org/2000/svg">
<path d="M5.27859 6.00002H5.61984C8.11097 6.00002 8.99484 4.68752 8.99484 3.56252C8.99448 3.25764 8.88798 2.96239 8.69365 2.72748C8.49931 2.49256 8.22925 2.33263 7.92984 2.27514C7.98984 2.15396 8.0411 2.02864 8.08322 1.90014C8.14868 1.68074 8.16154 1.44901 8.12076 1.22372C8.07997 0.998429 7.98669 0.785913 7.84847 0.60339C7.709 0.415304 7.52723 0.26268 7.31785 0.15786C7.10847 0.0530404 6.87737 -0.00103222 6.64322 1.49237e-05H2.34647C2.11222 -0.000902227 1.88105 0.0533437 1.67167 0.158362C1.46228 0.263381 1.28056 0.416222 1.14122 0.604515C1.003 0.787038 0.909714 0.999554 0.868929 1.22485C0.828145 1.45014 0.841005 1.68187 0.906468 1.90126C0.948589 2.02976 0.999844 2.15508 1.05984 2.27626C0.760622 2.33372 0.490711 2.49349 0.296397 2.72817C0.102082 2.96285 -0.00452985 3.25783 -0.00515747 3.56252C-0.00515747 4.68752 0.878717 6.00002 3.36984 6.00002H3.71109C3.73294 6.11386 3.74424 6.22947 3.74484 6.34539V7.50002C3.75129 7.60018 3.7363 7.70056 3.70089 7.79448C3.66548 7.88839 3.61045 7.97368 3.53948 8.04465C3.46851 8.11562 3.38322 8.17065 3.28931 8.20606C3.19539 8.24147 3.09501 8.25646 2.99484 8.25002H2.24484C2.14539 8.25002 2.05 8.28952 1.97968 8.35985C1.90935 8.43018 1.86984 8.52556 1.86984 8.62502C1.86984 8.72447 1.90935 8.81985 1.97968 8.89018C2.05 8.96051 2.14539 9.00002 2.24484 9.00002H6.74484C6.8443 9.00002 6.93968 8.96051 7.01001 8.89018C7.08033 8.81985 7.11984 8.72447 7.11984 8.62502C7.11984 8.52556 7.08033 8.43018 7.01001 8.35985C6.93968 8.28952 6.8443 8.25002 6.74484 8.25002H5.99709C5.89678 8.25667 5.7962 8.24185 5.70206 8.20654C5.60793 8.17124 5.52241 8.11626 5.45122 8.04527C5.38002 7.97429 5.32479 7.88894 5.2892 7.79491C5.25361 7.70089 5.23849 7.60035 5.24484 7.50002V6.34502C5.24547 6.22922 5.25677 6.11373 5.27859 6.00002ZM5.89209 4.93089C6.53464 4.36167 7.09052 3.70156 7.54209 2.97151C7.58658 2.98993 7.6342 2.99961 7.68234 3.00002C7.83153 3.00002 7.9746 3.05928 8.08009 3.16477C8.18558 3.27026 8.24484 3.41333 8.24484 3.56252C8.24484 4.37852 7.55522 5.25002 5.61984 5.25002H5.59884C5.6834 5.13223 5.78186 5.02508 5.89209 4.93089ZM3.36984 5.25002C1.43447 5.25002 0.744843 4.37852 0.744843 3.56252C0.744843 3.41333 0.804106 3.27026 0.909595 3.16477C1.01508 3.05928 1.15816 3.00002 1.30734 3.00002C1.35562 2.99966 1.40336 2.98998 1.44797 2.97151C1.89954 3.70156 2.45542 4.36167 3.09797 4.93089C3.20807 5.0251 3.3064 5.13225 3.39084 5.25002H3.36984Z" fill="white" fill-opacity="0.9"/>
</svg>
